<?xml version="1.0" encoding="UTF-8"?>
<!-- Uploaded to: SVG Repo, www.svgrepo.com, Generator: SVG Repo Mixer Tools -->
<svg fill="#000000" width="900px" height="900px" version="1.1" viewBox="144 144 512 512" xmlns="http://www.w3.org/2000/svg">
 <g>
  <path d="m478.72 530.87h-157.44c-1.4766 0-2.7266-1.0898-2.9258-2.5547-4.0273-29.664-19.688-47.625-39.746-68.023-31.047-31.57-48.387-73.332-48.832-117.59-0.45703-45.395 16.93-88.34 48.949-120.93 32.004-32.57 74.605-50.699 119.96-51.043 45.777-0.34766 88.785 17.199 121.23 49.398 32.449 32.203 50.32 75.113 50.32 120.83 0 44.902-17.332 87.27-48.805 119.3-20.078 20.434-35.754 38.418-39.785 68.062-0.19531 1.4648-1.4453 2.5547-2.9219 2.5547zm-154.89-5.9023h152.34c4.793-29.918 20.762-48.207 41.043-68.852 30.387-30.918 47.117-71.812 47.117-115.16 0-44.129-17.25-85.551-48.574-116.64-31.32-31.082-72.91-48.027-117.03-47.684-43.773 0.33203-84.895 17.832-115.79 49.277-30.914 31.465-47.699 72.922-47.258 116.73 0.42969 42.719 17.172 83.031 47.137 113.51 20.27 20.613 36.223 38.875 41.008 68.816z"/>
  <path d="m478.72 580.07h-157.44c-1.6289 0-2.9531-1.3203-2.9531-2.9531v-49.199c0-1.6289 1.3203-2.9531 2.9531-2.9531h157.44c1.6289 0 2.9531 1.3203 2.9531 2.9531v49.199c0 1.6328-1.3242 2.9531-2.9531 2.9531zm-154.49-5.9023h151.54v-43.297h-151.54z"/>
  <path d="m400 629.27c-28.758 0-52.152-23.395-52.152-52.152 0-1.6289 1.3203-2.9531 2.9531-2.9531h98.398c1.6289 0 2.9531 1.3203 2.9531 2.9531 0 28.758-23.395 52.152-52.152 52.152zm-46.156-49.199c1.5273 24.129 21.645 43.297 46.156 43.297 24.508 0 44.629-19.164 46.156-43.297z"/>
  <path d="m285.11 314.39c-0.23438 0-0.47266-0.027344-0.71484-0.085937-1.582-0.39063-2.5469-1.9922-2.1523-3.5742 6.3594-25.648 21.316-48.957 42.117-65.637 21.461-17.207 47.285-26.41 74.68-26.621 0.32031-0.003906 0.64062-0.003906 0.95703-0.003906 27.523 0 53.441 8.9805 75.023 26 21.168 16.695 36.348 40.23 42.738 66.266 0.39062 1.582-0.57812 3.1836-2.1641 3.5703-1.5898 0.39062-3.1797-0.58203-3.5703-2.1641-12.715-51.789-58.715-87.77-112.04-87.77-0.30078 0-0.59375 0-0.89844 0.003906-52.707 0.39844-98.398 36.492-111.11 87.77-0.32812 1.3477-1.5312 2.2461-2.8594 2.2461z"/>
  <path d="m419.68 530.87c-1.6289 0-2.9531-1.3203-2.9531-2.9531v-115.13h-33.457v115.13c0 1.6289-1.3203 2.9531-2.9531 2.9531-1.6289 0-2.9531-1.3203-2.9531-2.9531l0.003907-115.13h-31.488c-20.617 0-37.391-16.773-37.391-37.391 0-20.617 16.773-37.391 37.391-37.391 20.617 0 37.391 16.773 37.391 37.391v31.488h33.457v-31.488c0-20.617 16.773-37.391 37.391-37.391 20.617 0 37.391 16.773 37.391 37.391 0 20.617-16.773 37.391-37.391 37.391h-31.488v115.13c0 1.6328-1.3203 2.9531-2.9492 2.9531zm2.9492-123.98h31.488c17.363 0 31.488-14.125 31.488-31.488 0-17.363-14.125-31.488-31.488-31.488-17.363 0-31.488 14.125-31.488 31.488zm-76.75-62.977c-17.363 0-31.488 14.125-31.488 31.488 0 17.363 14.125 31.488 31.488 31.488h31.488v-31.488c0-17.363-14.125-31.488-31.488-31.488z"/>
 </g>
</svg>